<?xml version="1.0" standalone="no"?>
<!DOCTYPE svg PUBLIC "-//W3C//DTD SVG 20010904//EN"
 "http://www.w3.org/TR/2001/REC-SVG-20010904/DTD/svg10.dtd">
<svg version="1.0" xmlns="http://www.w3.org/2000/svg"
 width="900.000000pt" height="640.000000pt" viewBox="0 0 900.000000 640.000000"
 preserveAspectRatio="xMidYMid meet">
<metadata>
Created by potrace 1.16, written by Peter Selinger 2001-2019
</metadata>
<g transform="translate(0.000000,640.000000) scale(0.100000,-0.100000)"
fill="#000000" stroke="none">
<path d="M5100 6343 l-35 -16 94 -13 c143 -20 182 -36 189 -78 2 -10 16 -43
31 -73 22 -42 27 -65 25 -106 -1 -29 -5 -124 -8 -212 -4 -88 -9 -180 -11 -205
-3 -25 -7 -67 -10 -95 -6 -68 -43 -339 -55 -400 -5 -27 -11 -70 -14 -95 -5
-47 -38 -219 -54 -280 -8 -31 -42 -107 -76 -167 -12 -21 -56 -65 -107 -108
-14 -11 -51 -42 -84 -70 -33 -27 -68 -57 -78 -65 -10 -8 -29 -24 -42 -35 -14
-11 -35 -28 -47 -37 -13 -10 -61 -47 -108 -82 -52 -40 -89 -61 -95 -56 -6 5
-29 9 -51 8 -71 -1 -139 48 -200 144 -53 83 -69 103 -116 149 -21 20 -38 41
-38 46 0 6 -12 16 -27 22 -74 30 -164 105 -170 140 -3 24 -31 40 -82 47 -32 4
-53 14 -68 32 l-22 26 -28 -26 c-32 -29 -74 -53 -87 -50 -5 2 -27 -4 -50 -13
l-41 -17 23 24 c31 34 28 41 -18 34 -34 -5 -95 -31 -195 -84 -18 -9 -30 -10
-44 -3 -31 17 -31 36 0 82 30 46 37 79 17 79 -7 0 -47 -33 -88 -73 -72 -69
-110 -87 -110 -51 0 8 -4 14 -10 14 -5 0 -10 5 -10 11 0 6 -13 29 -28 52 -72
107 -92 138 -92 143 0 3 -34 57 -75 119 -84 128 -166 234 -262 337 -79 87
-165 213 -161 236 2 9 13 18 26 20 45 7 20 62 -29 62 -27 0 -58 -33 -69 -75
-6 -21 -56 -29 -95 -15 -18 7 -133 35 -180 45 -11 2 -72 17 -136 34 -177 47
-352 65 -549 57 -240 -8 -441 -42 -618 -102 -137 -47 -565 -265 -616 -315 -48
-46 12 -28 209 62 105 48 271 107 350 124 88 20 255 10 358 -21 9 -3 17 -11
17 -17 0 -10 -64 -111 -80 -127 -3 -3 -15 -19 -28 -37 -26 -37 -29 -63 -7 -63
15 0 147 84 176 112 26 25 162 122 198 142 29 15 55 19 132 19 136 -1 143 -4
135 -60 l-6 -45 33 5 c17 2 59 15 92 27 115 43 248 14 277 -60 5 -14 12 -50
15 -80 7 -71 29 -88 69 -52 11 9 35 28 53 41 l33 23 -6 -48 c-3 -27 -8 -74
-10 -104 -8 -90 -18 -184 -22 -205 -2 -11 -7 -33 -10 -50 -6 -35 -28 -102 -78
-239 -20 -54 -36 -100 -36 -102 0 -14 19 2 40 34 44 65 111 131 183 179 38 25
92 68 119 95 27 26 52 48 57 48 4 0 36 18 70 40 l62 40 8 -23 c5 -13 12 -40
15 -60 3 -20 18 -89 32 -154 44 -199 47 -212 41 -227 -4 -10 -27 -17 -66 -22
-58 -6 -78 -22 -51 -39 29 -18 90 -212 90 -285 0 -20 -7 -52 -17 -70 -9 -19
-24 -54 -33 -79 -15 -42 -20 -47 -59 -55 l-43 -9 6 -96 c3 -53 8 -117 12 -143
6 -52 -3 -61 -26 -27 -8 12 -24 33 -35 47 -11 15 -29 44 -41 66 -29 54 -44 57
-44 9 0 -41 35 -180 50 -198 5 -6 12 -38 16 -71 5 -43 13 -66 31 -86 14 -14
25 -29 24 -32 -8 -51 32 -97 81 -95 18 1 41 -2 51 -6 12 -5 17 -3 17 9 0 26 1
30 12 43 8 10 18 7 46 -13 32 -21 37 -22 40 -8 2 9 -2 27 -9 40 -9 18 -10 30
-1 49 15 33 39 32 55 -2 6 -16 15 -30 18 -33 12 -9 39 -82 39 -106 0 -12 5
-26 10 -29 6 -3 10 -16 10 -29 0 -12 10 -42 22 -67 12 -24 21 -51 20 -60 -2
-9 19 -29 50 -50 47 -30 60 -34 118 -33 36 0 87 4 113 8 45 7 48 9 44 35 -6
33 17 104 45 142 12 16 17 32 13 40 -5 7 -9 35 -11 63 -1 28 -6 101 -9 162
l-7 111 113 6 c63 3 138 13 167 22 29 9 56 13 61 10 5 -3 13 -20 16 -38 4 -17
11 -36 15 -42 4 -5 15 -37 23 -71 9 -34 27 -85 40 -114 14 -30 23 -59 21 -64
-3 -6 -43 -29 -90 -50 -66 -30 -89 -46 -101 -70 -8 -17 -28 -42 -44 -56 -24
-22 -29 -34 -33 -93 -5 -63 -4 -71 21 -104 l27 -35 23 28 c13 16 23 41 23 56
0 34 7 38 69 39 42 1 54 -2 70 -22 16 -20 21 -22 36 -9 14 12 18 12 26 -1 25
-38 36 53 14 119 -7 21 -4 22 37 22 38 0 49 5 81 38 20 21 37 46 37 55 0 10 7
20 15 23 19 8 19 47 0 84 -27 52 -1 32 42 -32 23 -35 51 -74 63 -88 46 -56
150 -205 147 -213 -1 -5 -7 -9 -12 -10 -5 -1 -25 -20 -45 -41 -19 -22 -53 -57
-75 -77 -29 -27 -47 -56 -63 -101 -41 -119 -64 -223 -69 -313 -5 -89 -5 -90
23 -117 17 -16 44 -29 64 -31 56 -6 98 -32 95 -59 -1 -13 -3 -29 -4 -35 0 -7
-15 -25 -32 -40 -40 -36 -59 -73 -59 -118 0 -33 2 -35 20 -25 18 10 20 8 20
-28 0 -21 7 -47 15 -58 14 -19 15 -18 34 6 l19 24 10 -24 c6 -14 16 -40 22
-57 7 -18 16 -33 20 -33 5 0 15 19 22 42 17 51 34 58 50 21 13 -29 37 -58 42
-52 2 2 8 25 15 51 17 72 14 166 -9 215 -19 43 -18 86 2 110 14 17 22 118 10
138 -6 12 -5 32 4 63 17 55 17 62 3 62 -16 0 -83 -32 -91 -44 -4 -6 -10 -7
-14 -4 -3 4 11 22 32 40 20 18 42 38 48 43 23 22 69 55 76 55 9 0 26 -70 35
-140 3 -25 8 -52 10 -60 19 -70 28 -425 12 -505 -4 -22 -12 -67 -18 -100 -6
-33 -17 -82 -24 -110 -8 -27 -16 -62 -19 -77 -3 -15 -9 -42 -15 -60 -6 -18
-29 -89 -52 -158 -47 -142 -91 -261 -125 -338 -13 -29 -24 -57 -24 -63 0 -13
-65 -139 -112 -217 -21 -34 -38 -66 -38 -71 0 -5 -3 -11 -7 -13 -5 -1 -35 -39
-68 -83 -72 -97 -121 -147 -198 -202 -62 -45 -110 -61 -130 -45 -7 6 -13 37
-15 69 -3 60 -24 107 -45 100 -18 -6 -39 27 -100 152 l-55 114 -7 -67 c-8 -74
-23 -85 -51 -36 -10 16 -24 32 -31 34 -28 11 -12 -49 54 -194 17 -36 33 -77
37 -92 6 -27 6 -28 -34 -23 -59 8 -52 -14 25 -74 36 -28 65 -55 65 -60 0 -14
109 -51 152 -51 91 0 275 118 419 266 72 76 175 205 202 255 7 13 25 44 41 68
44 69 154 285 213 421 148 336 243 739 243 1023 0 56 3 78 12 75 21 -7 109
-197 119 -256 11 -66 10 -242 -1 -242 -28 0 -54 -170 -29 -186 6 -3 28 11 50
32 l39 38 0 -32 c0 -35 25 -92 39 -92 5 0 24 29 41 65 28 58 50 76 50 41 0 -6
17 -28 38 -47 62 -59 64 -59 56 15 -4 36 -4 66 0 66 4 0 24 -9 46 -20 22 -11
41 -20 43 -20 2 0 1 18 -3 40 -8 46 -31 83 -76 126 -51 49 -105 175 -110 259
-5 76 -18 140 -39 195 -30 77 -34 112 -23 175 5 26 1 69 -11 125 -11 47 -24
111 -29 142 -9 48 -17 63 -51 94 -23 20 -44 46 -47 58 -3 12 -23 29 -47 40
-23 11 -67 45 -98 75 -46 46 -60 67 -74 116 -21 72 -24 102 -14 135 11 33 49
252 49 281 0 12 -7 30 -16 40 -27 30 -33 81 -13 103 10 10 19 30 21 44 2 21
12 28 48 39 25 7 59 19 75 25 39 15 416 21 470 7 59 -15 254 -43 260 -38 5 6
65 165 69 184 1 6 10 22 19 36 10 14 31 71 48 125 30 96 70 202 89 235 5 9 12
33 15 52 5 26 11 34 22 30 9 -4 20 1 25 11 7 12 13 14 22 7 6 -5 23 -12 36
-14 31 -5 61 -17 77 -31 7 -6 18 -15 25 -21 70 -54 190 -159 197 -173 10 -19
107 -72 131 -72 35 0 70 126 77 280 5 112 9 131 34 180 16 30 29 61 29 69 0 9
4 10 13 4 6 -6 26 -13 42 -17 37 -9 169 -72 187 -89 16 -16 171 -152 219 -192
19 -16 62 -52 94 -80 93 -79 210 -199 229 -236 9 -19 26 -47 36 -64 11 -16 24
-39 30 -50 6 -11 26 -47 45 -80 20 -33 38 -68 42 -77 3 -10 8 -18 12 -18 3 0
12 -15 20 -32 22 -50 133 -247 225 -396 44 -73 86 -141 91 -150 36 -63 101
-152 111 -152 25 0 -8 83 -145 358 -39 79 -71 150 -71 158 0 8 -4 14 -10 14
-5 0 -10 8 -10 18 0 10 -16 72 -36 137 -20 66 -44 156 -54 200 -9 44 -27 111
-38 148 -20 67 -20 68 -1 51 10 -9 19 -21 19 -26 0 -28 270 -368 292 -368 4 0
8 7 8 15 0 18 -34 123 -57 175 -24 56 -31 72 -58 138 -35 85 -176 390 -215
463 -12 22 -25 90 -21 109 5 23 21 28 58 18 39 -11 58 -24 163 -122 70 -64
206 -182 245 -211 21 -16 52 -43 68 -59 37 -37 46 -26 20 27 -18 38 -205 293
-250 342 -10 11 -29 37 -43 57 -14 21 -28 38 -32 38 -5 0 -8 7 -8 15 0 8 -4
15 -10 15 -5 0 -10 9 -10 20 0 14 5 18 18 13 9 -4 19 -9 22 -13 3 -3 48 -44
100 -91 52 -47 109 -99 126 -115 17 -16 68 -63 114 -104 114 -103 276 -262
286 -281 5 -9 26 -36 46 -60 21 -24 58 -71 82 -104 25 -33 49 -64 53 -70 5 -5
19 -25 31 -42 27 -39 42 -42 42 -10 0 24 -76 158 -133 234 -18 23 -43 59 -57
78 -151 216 -292 378 -676 774 -78 80 -158 165 -179 189 l-38 43 51 -7 c50 -6
52 -5 52 16 0 38 -56 113 -128 174 -90 77 -244 179 -317 211 -109 48 -229 109
-310 156 -66 39 -237 118 -320 149 -11 4 -45 18 -75 30 -215 88 -389 149 -550
191 -168 44 -168 44 -256 76 -45 16 -97 40 -115 54 -76 56 -89 61 -184 73 -16
3 -46 9 -65 15 -53 17 -189 13 -230 -6z"/>
</g>
</svg>
